<svg xmlns="http://www.w3.org/2000/svg" viewBox="0 0 1024 245"><path fill="#fff" d="M.01 0h1023.95v245H.01z"/><path fill="#e8f0fe" d="M45.12 0h432.31v85.3H45.12z"/><path d="M487.59 0c9.06 11.77-23.29 50.06-23.29 66.07A69.77 69.77 0 11371.78 0z" fill="#fff"/><circle cx="304.45" cy="110.63" r="69.77" fill="#fff"/><circle cx="233.65" cy="92.2" r="33.79" fill="#fff"/><circle cx="176.54" cy="86.08" r="33.79" fill="#fff"/><circle cx="118.05" cy="70.22" r="33.79" fill="#fff"/><path d="M324.18 66.6a71.41 71.41 0 0115.29-44.27m-94.93 51.54a70.24 70.24 0 0159.91-33.52m-101.1 36.89c5.52-11.15 17-19.47 30.3-19.47M117.91 35.8a34.42 34.42 0 0134.41 34.42M100 24.7a53.51 53.51 0 016.89 26.36" fill="none" stroke="#e8f0fe" stroke-miterlimit="10"/><path d="M407.92 183.66a3.92 3.92 0 013.92-3.93h267.61a3 3 0 013 3 3 3 0 01-3 3h-27.94a5 5 0 00-5 5 5 5 0 005 5h158a3.45 3.45 0 013.45 3.45 3.45 3.45 0 01-3.45 3.45h-23.1a3.65 3.65 0 00-3.65 3.65 3.65 3.65 0 003.65 3.64H1024v-7.29h-.25v-57.7h-429.9v-2.68l74.53-21.16-419-1.55 8.76-5.62h-201a4.16 4.16 0 00-4.08 4.08 4.16 4.16 0 004.16 4.16h96.41a6.28 6.28 0 016.27 6.28 6.27 6.27 0 01-6.27 6.27h-28.46a3.25 3.25 0 00-3.24 3.25 3.24 3.24 0 003.24 3.24h10.57a6.47 6.47 0 016.46 6.47 6.46 6.46 0 01-6.46 6.46H72a8.15 8.15 0 00-8.15 8.15 8.15 8.15 0 008.15 8.18h111.55a7.61 7.61 0 017.6 7.6 7.61 7.61 0 01-7.6 7.61h-81.44a6.24 6.24 0 00-6.25 6.24 6.24 6.24 0 006.25 6.24h341.18a5.28 5.28 0 005.29-5.28 5.29 5.29 0 00-5.29-5.29h-31.45a3.91 3.91 0 01-3.92-3.92z" fill="#e8f0fe"/><path fill="none" stroke="#fff" stroke-linecap="round" stroke-linejoin="round" d="M161.83 137.83h22.93m3.68-19.77h13.39m8.37 0h7.76m-12.7 3.37h5.06m26.15 65.08h8.24m-16.15 0h3.59"/><path fill="none" stroke="#fff" stroke-linecap="round" stroke-linejoin="round" stroke-width="1.22" d="M484.39 137.06h8.24m17.52-6.29h8.25m-23.96-5.02h19.26"/><path fill="none" stroke="#fff" stroke-linecap="round" stroke-linejoin="round" d="M616.67 149.36h19.26m3.1 5.66h13.14m18.28 15.54h13.14m1.95-6.05h10.44"/><path fill="none" stroke="#fff" stroke-linecap="round" stroke-linejoin="round" stroke-width="1.22" d="M704.39 169.51h10.45"/><path fill="none" stroke="#fff" stroke-linecap="round" stroke-linejoin="round" d="M707.63 169.51h15.59m54.39 18.07h22.69m21.3 4.06h13.14m6.34-40.72h18.28m-4.45 5.1h11.18"/><path d="M249.41 119.48s8.1-8.14 16.57-9.32c0 0 7.54-1 9.38-2.87s8.68-7.08 11.8-7.08 8.67-1.12 14.21-8 19.39-14 29.08-11.84c0 0 3.79-7.08 11.36-5.07 0 0 2.34-5.69 8-4.15 0 0 2.93-7.08 10.47-5.38 0 0 2.15-7.08 11.23-7.08 0 0 1.08-7.7 11.7-7.08 0 0 4.31-6.16 16.46-5.23 0 0 .89-5.7 8.22-8.47s6.86-5.23 8.4-8.31a13.71 13.71 0 017.71-6.95c4-1.7 3.17-5.47 5.09-7.39S439.41 0 454.79 0h568.92l.25 115.64-384.2-5.48-76.63 7.44-177.28-.75-136.44 2.63" fill="#e8f0fe"/><path fill="none" stroke="#aecbfa" stroke-linecap="round" stroke-linejoin="round" d="M259.75 189.62h22.69m5.02 0h9.72m66.43 0h9.47"/><path fill="none" stroke="#d2e3fc" stroke-linecap="round" stroke-linejoin="round" d="M436.48 125.01h16.57"/><path fill="none" stroke="#aecbfa" stroke-linecap="round" stroke-linejoin="round" d="M315.73 189.62h9.47m4.32 0h5.8m-26.39 4.16h22.69"/><path fill="none" stroke="#d2e3fc" stroke-linecap="round" stroke-linejoin="round" d="M285.43 203.3h22.69m4.51 0h10.69m-31.16 5.47h13.39m310.39-24.46h20.48m-348.78 29.05h7.76m337.18-23.74h8.49m97.23 9.01h8.49m8.5 0h13.63m34.74 14.47h8.49m-363.17-84.61h9.95m74.53-3.48h9.95m28.69.74h22.44m-25.62 2.74h13.38m-298.84-3.48h10.7m-4.9 4.13h7.51m380.44 20.22h9.96m7.26 0h7.27m126.23 1.56h7.27m-23.77 2.88h7.26"/><path d="M279 87.5l-.68-9.92c18 13 21.44 27.78 21.44 27.78m-32.23-19.45l10.79-8.33-5.28 9.92" fill="none" stroke="#e8f0fe" stroke-linecap="round" stroke-linejoin="round" stroke-width="1.22"/><path fill="none" stroke="#e8f0fe" stroke-linecap="round" stroke-linejoin="round" stroke-width="1.22" d="M268.77 75.29l9.55 2.29-10.87 1.61m10.87-10.47v8.86l-3.58-10.03m11.72 9.69l-8.14.34 9.14-6.44m14.56 23.66l-4.03-11.66 5.57-5.56"/><path fill="none" stroke="#e8f0fe" stroke-linecap="round" stroke-linejoin="round" stroke-width="1.22" d="M297.99 77.58v5.56l5.57 2.16m-11.24 2.2l5.67-4.36-6.47-3.31m4.7 11.64l1.77-8.33m-9.18 9.06v9.02l4.2-4.88m-11.3-1.54l7.1 6.42-3.38-9.75m-5.48 10.71l8.86-.96-8.53-3.31"/><path d="M373.65 63.7s-3.25-11.17-3.25-21.17l1.63-11" fill="none" stroke="#e8f0fe" stroke-linecap="round" stroke-linejoin="round"/><path fill="none" stroke="#e8f0fe" stroke-linecap="round" stroke-linejoin="round" d="M379 41.71l-8.6.82 6.98-7.21"/><path fill="none" stroke="#e8f0fe" stroke-linecap="round" stroke-linejoin="round" d="M360.61 36.71l9.79 5.82 7.56 3.02m-13.84 5.47l6.28-8.49-11.4.71M391.33 51A54.07 54.07 0 00379 18l2.45-9"/><path fill="none" stroke="#e8f0fe" stroke-linecap="round" stroke-linejoin="round" d="M389.36 19.62L379 17.99l9.66-2.91m-19.38 7.21l9.72-4.3-9.72-.64m6.23 11.8L379 17.99l-6.97 8.14"/><path fill="none" stroke="#e8f0fe" stroke-linecap="round" stroke-linejoin="round" d="M380.4 27.29l-1.4-9.3-6.97-6.86"/><path d="M678.92 121.43l-429.21-1.93s7.34-4.65 19.06-4 26.83-.83 33-3.09 50.13-2.46 61.37 1 16.59-8.44 35.32-6.11 19.66 8.08 40.25 8.08 48.41.38 70.21-4.76 35 5.89 52.42 3.59 29.16-13.41 53.23-14.34c0 0 10.3 1.87 23.27-7.09s38.09-10.78 73.93 4.55z" fill="#d2e3fc"/><path d="M434.25 91.73l-5.71-11.37c-15.3 13.82-20.32 35.1-20.32 35.1m34.33-39.44l-14.01 4.34 5.9-10.14m-14.38 3.73l8.48 6.41-.92-12.81m-9.68 14.93l10.6-2.12m88.35 36.51c-2.62-12.46 0-21.23 0-21.23l10.35-8.14m-9.93-4.36l-1 11.73s-7.44-9.25-8.44-10.27m-2.07 19.07l9.93-7.96-12.89.77" fill="none" stroke="#d2e3fc" stroke-miterlimit="10" stroke-width="2"/><path fill="none" stroke="#d2e3fc" stroke-miterlimit="10" stroke-width="2" d="M529.14 96.59l-12.25-.95 7.08 8.03m19.44 10.31l1.79-17.24m-10.07 16.27l9.07-6.66-7.54-7.43"/><path fill="none" stroke="#d2e3fc" stroke-miterlimit="10" stroke-width="2" d="M550.43 101.22l-6.23 5.13-10.74-1.95m16.65 7.65l-5.91-5.7 7.84.46"/><path d="M591.09 143.48s1.86-5.41 8.95-3.95a8.43 8.43 0 016.78-3.09 8.15 8.15 0 005.66-1.85c1.31-1.13 3.54-2 7.29-1 0 0 1.05-3.13 6.15-3.09a6.93 6.93 0 004.17-1.4c2-1.45 5.56-3.07 10.68-1.25 0 0 6.6-5.79 14.88-2.9 0 0 3.23-5.23 12.73-3.94 0 0 1.53-10.87 16.25-10.87 0 0 12-21.9 49.24-10.8a18.71 18.71 0 0010.2.16c1.88-.51 4.63-.61 8.48.56 0 0 14.18-6.39 31 7.16a13.18 13.18 0 008.8 2.85 15.74 15.74 0 015.28.88s4-11 18.65-8c0 0 4-4.3 10-.92 0 0 8.62-14.32 26.72-5.86a7.4 7.4 0 011.61.75A14.84 14.84 0 00866 98.57c5.86-1.59 15.13-2.35 26.74 2.61 0 0 7.39-.45 15.14-7a18 18 0 0111.78-4.31 21.18 21.18 0 015.62.86c8.69 2.52 21.11-10.41 34.25-7.08s28.28 6.87 35.66 6.27 24.35-5.26 24.35-5.26l.25 58.78h-428.7" fill="#aecbfa"/><path d="M676.14 115.46s-4-14.68-39.31-19.41c0 0-21.75-2-34.21-19.41l1.58-5.36s5.68 15.94 33.92 18.14 41.79 11.52 49 21.78z" fill="#aecbfa"/><path d="M623.6 56.91l4 3.23 9.67-5.33c-19.69-4.3-28.67 4.58-28.67 4.58v-4.51l-3.46.68a.87.87 0 01-1-.85.85.85 0 01.53-.79l4-1.65v-9A31.92 31.92 0 00596 68.18c-11.66-4-25-1.52-25-1.52l12.9 4.53 2.25-2.66a.71.71 0 01.54-.25.71.71 0 01.64 1L586 71.94l4.53 1.6c-17 11.94-12.9 35.26-12.9 35.26l10.42-15.93-1.23-4.29a.2.2 0 01.36-.15l1.69 3.19 1-1.57-2.78-5.6a.41.41 0 01.62-.5l4 3.23 3.05-4.66c0 10.89 2.68 16.72 2.68 16.72l3.17-11.48-2.31-.76a1 1 0 01-.69-.94 1 1 0 01.84-1l3.13-.48 1.86-6.74.29-3.35 9.4 1.69 1.38-3.89a.87.87 0 01.81-.57.85.85 0 01.85.72l.73 4.42L628.67 79c-3.25-7.83-15.48-10.89-15.48-10.89l5.56-3.11-2.58-4.5a.28.28 0 01.41-.36l4.72 3.46 5.17-2.86zm78.1 41.17s-1.27-6.09 1.51-15.57c0 0 3.52 6.7 4.5 11.77a30.18 30.18 0 011.29-8.91s3.11 5.23 3.11 9.56a29.18 29.18 0 013.67-4.64s.33 5-.4 7.79l-26.58 10 1-2.46a29 29 0 01-7.28-5.31s4.9.16 7.68 1.47a43 43 0 01-7.68-9.48s8.34 2.78 11.28 5.72a58.71 58.71 0 01-3.92-12.67s8.01 5.73 11.82 12.73zm21.63.53s-9.53-18.06-13.58-33.84l1.64-2.66 2 1.1s7.27 24.69 16.26 35.4z" fill="#aecbfa"/><path d="M720.79 57.17l4.93-1.42-2.3-3.75a.46.46 0 01.64-.63l5.2 3.34 17.19-5c-28.47-8.71-40.2 1.51-40.2 1.51-28.74 1.58-38.14 24.35-38.14 24.35l14-5.7.75-4a.19.19 0 01.37 0v3.57l4-1.64.27-5.63a.7.7 0 01.41-.61.71.71 0 011 .54l.67 4.74 12.85-5.24c-12.83 8-13.93 18.73-13.93 18.73l12.83-7.61v-5.79a.73.73 0 01.38-.64.73.73 0 011 .36l1.77 4.21 6.51-5.5 1.62-.3a25.86 25.86 0 017.71 0l.72-4.5a.54.54 0 01.53-.45.54.54 0 01.53.51l.2 4.74c1.72.29 3.41.68 5 1.08l.35-4.34.82 4.66a73.45 73.45 0 017.28 2.41c-4.39-10.42-14.96-12-14.96-12z" fill="#aecbfa"/><path fill="none" stroke="#b2cbf6" stroke-miterlimit="10" stroke-width="3.92" d="M742.65 104.58l14.01-45.99"/><path d="M778.86 54.87l-1.86-.11a66.35 66.35 0 00-10.55.2A65.41 65.41 0 00775 44.41a1.33 1.33 0 00-.14-1.64 1.35 1.35 0 00-1.68-.24l-1.58.95a65.76 65.76 0 00-9.49 6.91 58.53 58.53 0 003-12.94.79.79 0 00-.69-.92 1.33 1.33 0 00-1.26.7l-.78 1.38a65.73 65.73 0 00-5.27 11.84A66.59 66.59 0 00753.43 38a1.35 1.35 0 00-2.59.4l-.14 1.84a66.59 66.59 0 00.3 12.43 66.08 66.08 0 00-12.13-11.85 1.34 1.34 0 00-2 1.68l.83 1.64a66 66 0 009.06 13.42 65.57 65.57 0 00-15.08.08 1.35 1.35 0 00-.29 2.61l1.74.61A66.84 66.84 0 00746 63.94a66.14 66.14 0 00-12.33 9.67 1.34 1.34 0 001.38 2.23l1.74-.59A65.94 65.94 0 00754 66.42a66 66 0 0011.27 15 1.36 1.36 0 001.65.19 1.34 1.34 0 00.57-1.59l-.6-1.74a66.54 66.54 0 00-5.4-11.76 65.71 65.71 0 0014.57.25 1.34 1.34 0 00.35-2.59l-1.72-.66a67 67 0 00-7.42-2.31 66.33 66.33 0 0012-3.71 1.35 1.35 0 00-.43-2.59z" fill="#b2cbf6"/><path fill="none" stroke="#b2cbf6" stroke-miterlimit="10" stroke-width="3.92" d="M819.55 115.66l6.7-47.61"/><path d="M849 61.87a1.36 1.36 0 00-1.41-.94l-1.83.18A65 65 0 00835.38 63a66.68 66.68 0 006.75-11.74 1.36 1.36 0 00-.4-1.61 1.34 1.34 0 00-1.69 0l-1.42 1.18a65.84 65.84 0 00-12 13.1 65.76 65.76 0 00-6.8-15.66 1.34 1.34 0 00-2.49.8l.15 1.84a65.44 65.44 0 002.19 12.2 66 66 0 00-13.83-9.83 1.34 1.34 0 00-1.63.29 1.36 1.36 0 00-.09 1.69l1.08 1.49A66.25 66.25 0 00818.05 70a66.23 66.23 0 00-15.74 4.42 1.35 1.35 0 00.45 2.59l1.83.1a65.55 65.55 0 009.71-.11 66.07 66.07 0 00-8.43 9.48 1.32 1.32 0 000 1.65 1.35 1.35 0 001.66.33l1.63-.85a66 66 0 0015.64-11.4 66.2 66.2 0 0013.46 13 1.35 1.35 0 002-1.72l-.86-1.63a66.59 66.59 0 00-7.16-10.78 65.86 65.86 0 0014.43-2 1.36 1.36 0 001-1.31 1.34 1.34 0 00-1.07-1.31l-1.8-.38a66.6 66.6 0 00-7.7-1.08 66 66 0 0011.33-5.54 1.34 1.34 0 00.57-1.59z" fill="#b2cbf6"/><path d="M964.29 88.48c2.89-13.33 17.29-24.83 17.29-24.83" fill="none" stroke="#b2cbf6" stroke-miterlimit="10" stroke-width="2.47"/><path d="M995.6 65.72l-1.08-.43a41.92 41.92 0 00-6.36-1.92 41.88 41.88 0 007.13-4.67.86.86 0 00.23-1 .85.85 0 00-1-.46l-1.13.26a41.33 41.33 0 00-10.44 4 41.5 41.5 0 00.63-10.73.83.83 0 00-.7-.77.84.84 0 00-.93.51l-.43 1.07a42 42 0 00-2.2 7.42 42 42 0 00-5-9.45.85.85 0 00-1.53.62l.18 1.15a41.49 41.49 0 003.42 11.11 41.85 41.85 0 00-10.1-2 .87.87 0 00-.87.59.85.85 0 00.38 1l1 .58a41 41 0 005.5 2.67 40.84 40.84 0 00-7.43 2.93.85.85 0 00.4 1.6h1.16a41.62 41.62 0 0012-2 41.53 41.53 0 003.88 11.2.85.85 0 001 .44.84.84 0 00.65-.84v-1.16a41.49 41.49 0 00-1-8.09 41.38 41.38 0 008.68 3 .85.85 0 00.71-1.49l-.9-.72a42.42 42.42 0 00-4-2.82 41.29 41.29 0 007.94.11.86.86 0 00.76-.71.83.83 0 00-.55-1z" fill="#b2cbf6"/><path fill="none" stroke="#aecbfa" stroke-linecap="round" stroke-linejoin="round" stroke-width="2.45" d="M882.85 104.8l-1.37-26.69-.59-11.66"/><path fill="none" stroke="#aecbfa" stroke-linecap="round" stroke-linejoin="round" stroke-width="1.22" d="M891.11 61.8l-9.63 16.31m-9.17-10l8.93 12.15"/><path d="M882 66.51s-11.44 10.9-20.9 5.68.91-20.51 13-20.51c0 0 5.36-.9 9.3 1.35a13.38 13.38 0 007.77 1.66c3.72-.31 8.38.05 9.86 3.38 2.27 5.06-4.13 8-11.53 7a11.62 11.62 0 00-7.22 1.33z" fill="#aecbfa"/><path fill="none" stroke="#aecbfa" stroke-linecap="round" stroke-linejoin="round" stroke-width="2.45" d="M897.47 102.73l5.69-21.63"/><path fill="none" stroke="#aecbfa" stroke-linecap="round" stroke-linejoin="round" stroke-width="1.22" d="M896.77 78.2l4.31 10.82"/><path d="M891.92 73.22c-1.11 3.45.64 7.7 4.88 7.33 3.07-.26 5.3 1.12 8.18 1.59 3.22.53 6.82-1.79 8.12-4.67 2.52-5.57-2.2-10.09-7.39-11a13.49 13.49 0 00-8.34 1.22 12.24 12.24 0 00-4.74 4 6.13 6.13 0 00-.71 1.53zm89.58-40.85s-9-10.24-27.1-10.24l2.44-3.91-1.57-.59v-2.25l3.65-.47 6.59-10.52S953.77 7.26 948 22.25c0 0-6.5-11.74-25.11-16.36l10.5 10.51 3.86-1.89-2.72 3L941 24s-19.36.88-27.85 18.61a110.72 110.72 0 0116.28-6.46l1.2-6.15.79 5.63A29 29 0 01935 35s-6.12 5.13-7.75 11.75l11.09-5.68 2.19-7.07.84 5.52 4.44-2.27c-.42 8.64-.57 32.76 9.21 50.21l3.62-1.83s-11.74-27.47-10.06-52.71a56.44 56.44 0 0112.64-1.48l.67-5.31 2.54 5.27c1.4 0 2.89 0 4.49.08l-1-4.6 2.27 4.64c3.31.14 7.08.41 11.31.85z" fill="#aecbfa"/><path d="M1021.3 144.89H587.46s1-3.2 17-3.2c0 0 30.87-8 63.2-4.63s66.59 5.84 82.88 2 69.27-7.54 96.25-3.89c0 0 17.25-7.14 36.7-1.51s62-.64 69.27-2.85 42.8-12.42 68.53-10.71z" fill="#8ab4f8"/><path fill="none" stroke="#8ab4f8" stroke-linecap="round" stroke-linejoin="round" d="M803.5 137.39l1.28-5.88m-40.48 8.44l-1.1-5.89m-3.67 6.94l-4.66-5.57m4.66 5.57l-2.2-8.62m1.82 7.15l.98-5.47m-20.42 9.42l-1.17-4.57m2.31 3.17l1.36-5.39m-1.36 5.39l4.23-4.12m-13.45 4.44v-3.72m0 3.72l2.12-3.49m-5.15 4.42l-1.11-4.42m1.11 4.42l-3.14-3.24m-4.55 2.31v-2.87"/><path fill="none" stroke="#8ab4f8" stroke-linecap="round" stroke-linejoin="round" stroke-width="1.22" d="M804.81 137.39l3.09-5.88"/><path fill="none" stroke="#8ab4f8" stroke-linecap="round" stroke-linejoin="round" d="M803.5 137.39l-3.6-5.01m34.98 5.45l1.05-4.82m.23 4.82l2.42-5.33m-3.7 5.33l-2.41-6.1m-11.28 8.95l1-11.82m-.23 2.65l-3.08-2.63"/><circle cx="822.73" cy="127.3" r="2.3" fill="#8ab4f8"/><circle cx="824.27" cy="129.42" r="2.3" fill="#8ab4f8"/><circle cx="804.81" cy="130.19" r="2.3" fill="#8ab4f8"/><circle cx="818.88" cy="128.86" r="2.3" fill="#8ab4f8"/><circle cx="807.9" cy="132.5" r="2.3" fill="#8ab4f8"/><path fill="none" stroke="#8ab4f8" stroke-linecap="round" stroke-linejoin="round" d="M866.45 134.66l2.03-4.47m-2.03 4.47l-1.8-6.32m-16.05 9.71l-1.26-4.42m1.26 4.42l1.81-6.76m40.53 7.27l2.12-4.93m-113.09 3.03v-8.47m0 8.47l1.87-6.87m-1.87 6.87l4.1-5.38m-4.1 5.38l5.59-3.07m-5.59 3.07l-2.59-6.47m2.59 6.47l-4.1-4.16m4.1 4.16l-5.5-2.08"/><path fill="none" stroke="#aecbfa" stroke-linecap="round" stroke-linejoin="round" d="M874.8 103.06l-1.36-11.98m1.36 11.98l1.54-10.03m-1.54 10.03l4.93-8.27m-4.93 8.27l7.42-5.25m-7.42 5.25l-4.69-8.74m4.69 8.74l-6.46-5.22m6.46 5.22l-8.11-2.06m20.41 3.29l2.14-12.49m-2.14 12.49l4.49-9.67m-4.49 9.67l7.4-6.9m-7.4 6.9l9.03-3.12m-9.03 3.12l-2.17-10.19m2.17 10.19l-4.99-7.17m4.99 7.17l-7.58-4.46"/><path fill="none" stroke="#8ab4f8" stroke-linecap="round" stroke-linejoin="round" d="M858.82 136.26l-1.45-8.34m1.45 8.34l.67-7.09m-.67 7.09l3.12-6m-3.12 6l4.99-3.98m-4.99 3.98l-3.65-5.93m3.65 5.93l-4.75-3.39m4.75 3.39l-5.77-1.1"/><path d="M377.07 185.67H257.85a5.2 5.2 0 01-4.43-2.49l-8.88-14.62h163.68l-22.51 14.56a15.93 15.93 0 01-8.64 2.55z" fill="#fff"/><path fill="#d2e3fc" d="M296.97 169.51h-6.95l-.97-.95h6.96l.96.95z"/><path d="M307.71 168.6h81.42l-7.07-4.72a20.46 20.46 0 00-11.4-3.46h-63zm-21.25-13.58h47.79V91.73l-47.79 63.29zm98.04 0h-47.79v-93l47.79 93z" fill="#fff"/><path fill="#b2807f" d="M368.27 158.56h2.3v1.84h-2.3z"/><path d="M267.53 165.15l7.06-2.47a2.75 2.75 0 013.28 1.38l2.75 4.55h-12.87z" fill="#174ea6"/><path d="M271.7 165.54l6.26-2.19a2.45 2.45 0 012.92 1.22l2.43 4h-11.42z" fill="#1967d2"/><path d="M256.1 150.52l-1.88 1.5a6 6 0 00-2.12 2.74l-3.54 13.85h2.5l4.26-12.35 3.15-2.41z" fill="#c58f8c"/><path d="M261.52 154.69l-1.91 1.31-3.78-5.32 8.26-5.54a4.58 4.58 0 012.56-.79h5.28a4.59 4.59 0 013.64 1.8l6.14 8-5.41 4.41-1.43-1.85-.14.77a28.53 28.53 0 00-.06 9.84l.2 1.22-.12.06a15 15 0 01-12.22 1 3.5 3.5 0 01-2.34-3.21A42.08 42.08 0 01261 157z" fill="#d93025"/><path d="M281.71 154.17l8.38 11.83 4.17 1.6a.53.53 0 01.35.49.54.54 0 01-.54.54h-4.95l-10.8-11.68zm-7-16.98s.49 5.78-2.53 5.78v1.41l-.15.07a5.71 5.71 0 01-4.39 0l-.19-.08v-7.32z" fill="#c58f8c"/><path d="M272 137.59h2.72a1.94 1.94 0 001.78-2.17 1.86 1.86 0 00-1.78-2.11 3.14 3.14 0 00-1.3.18 1.52 1.52 0 01-1.59-.31 1.45 1.45 0 00-1.08-.4 2.18 2.18 0 00-2 1.2 1.49 1.49 0 01-1.29.83 1.8 1.8 0 00-1.49.67 2 2 0 00-.22 2.2.71.71 0 01-.09.83 1.66 1.66 0 00-.44 1.61 1.48 1.48 0 001.3 1.23.15.15 0 000 .06 1.11 1.11 0 002 .21 4.48 4.48 0 00.53-1.92c.19-2.19 1.63-1.53 1.63-.75v.53a.56.56 0 00.57.57.58.58 0 00.57-.52z" fill="#343757"/><path fill="none" d="M274.87 156.76l1.16 1.47-1.16-1.5v.03zm-13.35-2.07c0 .15-.07.31-.11.46.03-.15.06-.3.11-.46z"/><path d="M262.79 150.57a.51.51 0 00-.27-.65.5.5 0 00-.66.27 33.59 33.59 0 00-1.59 5.38l1.23-.86a28 28 0 011.29-4.14zm10.46 4.14a.5.5 0 00-.7-.08.5.5 0 00-.08.7l2.18 2.76.22-1.33zm3.05 3.86l-.27-.34.27.34z" fill="#a50e0e"/><path d="M351.67 158.42l2.39-4.06-1.15-1.36a.68.68 0 01.08-1l2.77 2-1.44 4.7 1 1.2" fill="#b2807f"/><path d="M354.52 160.4h-2.26a.83.83 0 01-.78-.55l-1.82-5.23h-1.77a.69.69 0 01-.69-.69l3.36-.78 2.65 4.14h1.57zm12.57-7.02s1.5-.32 1.66-1.58a2.17 2.17 0 00-.48-1.55 13.94 13.94 0 01-.44-1.61c0-.25-4.15.93-4.15.93l-.56.93.72 1.85.71 1.09z" fill="#c48e8b"/><path d="M365.56 151.1a2.29 2.29 0 012.29-2.33c.69-.18.74-2.24-2-2.1h-.46c-2.29.32-4.24 2.11-3.68 4.21a3 3 0 002.9 2.44c.31-.13.61-.89.42-1.79s.53-.43.53-.43z" fill="#343757"/><path fill="none" stroke="#b2807f" stroke-linecap="round" stroke-miterlimit="10" stroke-width="2.45" d="M368.51 159.2l-1.98-2.8"/><path d="M361.24 160.4h-7a3.11 3.11 0 010-3.61h2a2.15 2.15 0 012-1.36 5.32 5.32 0 012.41.49z" fill="#343757"/><path fill="none" stroke="#c48e8b" stroke-linecap="round" stroke-miterlimit="10" stroke-width="2.45" d="M370.57 159.2l-1.98-2.8"/><path d="M361.63 160.4h.21a5.52 5.52 0 003.51-1.89l1.12-1.3 1 1.36 1.45-1 1.36-1-1.65-2.34a4.29 4.29 0 00-5.39-1.11l-3.2 1.92a1.06 1.06 0 00-.47.59 6.75 6.75 0 00-.32 1.84 3.17 3.17 0 001.44 2.9z" fill="#34a853"/><path d="M364.27 155.21a.5.5 0 00-.09.7l1.59 2.1.7-.81-1.5-1.89a.51.51 0 00-.7-.1z" fill="#1e8e3e"/><ellipse cx="364.86" cy="150.92" rx=".76" ry="1.03" transform="matrix(.89314 -.44979 .44979 .89314 -28.89 180.22)" fill="#c48e8b"/><path d="M367.85 148.77a1.26 1.26 0 00.79-1.19c0-.82-.78-1-1.4-.9a1.42 1.42 0 01-.58 0 2 2 0 00-.89-.07 2.24 2.24 0 00-.34.07 1.46 1.46 0 01-.8-.06 1.18 1.18 0 00-.85 0 .88.88 0 00-.55.52 1 1 0 01-.51.59.94.94 0 00-.49.49v.11a1.29 1.29 0 01-.51.62.8.8 0 00-.34.7 1.53 1.53 0 00.15.73.83.83 0 01.06.54c-.06.29.08.92.59 1l1.15.3.49-2.95 1.87-1.67z" fill="#343757"/><path d="M298.81 168.61h46.6v-32.25s.35-7.5 2.1-10.74a11.59 11.59 0 001.29-6.45l-.4-5.29s-.34-1-6.29-3.25L330.93 134a10.9 10.9 0 01-3.2 4 10.68 10.68 0 01-2 1.19c-2.63 1.19-1.8 5.2-3.5 6.9s-5 .79-6.69 5.19-4.61 4.54-8.44 6.49c-4.4 2.25-2.87 6.37-4.47 8a20.74 20.74 0 01-3.82 2.84z" fill="#fbbc04"/><path fill="none" d="M324.79 168.61h5.15l9.08-35.05-14.23 35.05zm12.06 0h7.44l-2.19-28.77-5.25 28.77zm-25.59 0h6.23l11.96-25.54-18.19 25.54z"/><path d="M342.81 135.9a.5.5 0 00-.48-.46.48.48 0 00-.51.41l-6 32.76h1l5.25-28.77 2.19 28.77h1zm-1.25-10a.5.5 0 00-.62.29l-17.23 42.42h1.08L339 133.56l-9.08 35.05h1l10.91-42.11a.51.51 0 00-.27-.6zm-9.06 11.96a.5.5 0 00-.66.14L310 168.61h1.23l18.19-25.54-12 25.54h1.1l14.18-30.11a.5.5 0 00-.2-.64z" fill="#f9ab00"/><path d="M347 113.24h7.44l-.68-6.43-1.65-1.65a1.21 1.21 0 01-.35-.85.33.33 0 01.4-.32l2.71.61a1.25 1.25 0 01.92.86l2.43 8.21A1.88 1.88 0 01357 116l-9.19 3.36a3 3 0 01-3.38-1 3 3 0 01-.27-3.26l.15-.29a3 3 0 012.69-1.57z" fill="#a1594a"/><path d="M346.31 112.43l.75-2.83h1.66a2.76 2.76 0 002-.81 2.76 2.76 0 00.78-1.59l.25-1.86a10.15 10.15 0 00-.1-3.16l-5.06 1.1-.74.51-3.7 6.84z" fill="#a1594a"/><path d="M348.06 105.33c0-.45-.12-1.18-.79-1.27-1-.14-1.57 1.08-1.66 2.25s-1.32.89-2.27.53c-1.21-.45-2.51.79-3.5 1.31a18.47 18.47 0 01-9.38 2.15c-3.45-.17-6.27-3.45-4.23-7.22 0 0-10.43.85-10.48-5.07a5.24 5.24 0 013.79-4.63 4.85 4.85 0 00-1.46 3.48c.21 1.88 3.22 2 7.86.93s7.18.58 7.18 2.17a2.89 2.89 0 01-.86 2.27 17 17 0 007.51-1c2.89-1.29 10.27-2.65 11.84 1 0-.05.67 1.42-3.55 3.1z" fill="#343757"/><path d="M1024 0h-5.21s-9.06 9.72-20.41 28.18l14.22 25a2.17 2.17 0 01-.35 2.6 2.17 2.17 0 01-2.87.16L990.8 41.26c-3.44 6.36-7 13.42-10.38 21.16l26.79 17.39a3 3 0 011.2 3.48 3 3 0 01-3.54 1.95l-30.75-7.44c-3 7.87-5.79 16.3-8.31 25.26l33.54 7.12a.72.72 0 01-.17 1.43l-35.32-1.3c-2 7.7-3.72 15.77-5.18 24.2l39.19 6.5a1.21 1.21 0 011 1.19 1.21 1.21 0 01-1.26 1.21l-40.12-1.62c-1 6.81-1.84 13.84-2.43 21.08l30.7-2.14a1.25 1.25 0 011.34 1.25 1.24 1.24 0 01-1 1.22l-31.59 7.1q-.43 7.33-.55 14.95l-14-142s-12.38 8.93-23.69 28.52L931 85a1.68 1.68 0 01.36 2 1.68 1.68 0 01-2.22.7l-17-8.33a130.55 130.55 0 00-5.84 14l16.08 7.43a2.24 2.24 0 01-2.75 2.18l-15.3-3.57a145 145 0 00-4.14 17.76l20.16 7.07a3 3 0 012 2.87v1l-23.52-1.37a175.84 175.84 0 00-.88 23l27.05 2.67a1.33 1.33 0 011.2 1.32 1.34 1.34 0 01-1.26 1.34l-26.59 1.38a214.88 214.88 0 003 25.09l31.24 4.62a2.06 2.06 0 011.75 2 2 2 0 01-1.34 1.94l-27.46 10.54c1.65 6.34 3.59 12.9 5.87 19.68L1024 223.8zM67.88 0h-29a53 53 0 1029 0z" fill="#fff"/></svg>